<?xml version="1.0" standalone="no"?>
<!DOCTYPE svg PUBLIC "-//W3C//DTD SVG 20010904//EN"
 "http://www.w3.org/TR/2001/REC-SVG-20010904/DTD/svg10.dtd">
<svg version="1.0" xmlns="http://www.w3.org/2000/svg"
 width="1280.000000pt" height="1280.000000pt" viewBox="0 0 1280.000000 1280.000000"
 preserveAspectRatio="xMidYMid meet">
<metadata>
Created by potrace 1.14, written by Peter Selinger 2001-2017
</metadata>
<g transform="translate(0.000000,1280.000000) scale(0.100000,-0.100000)"
fill="#000000" stroke="none">
<path d="M1195 12673 c-16 -2 -75 -13 -130 -25 -413 -87 -761 -388 -924 -799
-12 -31 -24 -63 -25 -70 -1 -8 -8 -32 -14 -54 -32 -114 -41 -199 -38 -360 3
-162 18 -254 65 -390 78 -225 213 -418 396 -568 102 -83 116 -92 215 -145 209
-111 396 -154 640 -147 221 6 389 49 568 146 342 184 605 543 658 899 3 19 10
53 14 75 14 62 4 330 -15 410 -9 39 -18 79 -20 89 -35 158 -173 403 -306 543
-197 206 -455 342 -730 386 -80 13 -285 19 -354 10z"/>
<path d="M11255 12665 c-256 -42 -492 -159 -680 -337 -181 -171 -296 -364
-361 -603 -32 -121 -39 -184 -38 -355 1 -211 34 -349 130 -545 155 -313 435
-553 769 -658 44 -13 100 -28 125 -32 25 -4 54 -10 65 -13 11 -2 85 -6 165 -8
142 -2 255 9 350 37 25 7 47 13 50 14 61 13 223 87 305 138 288 180 509 491
574 809 6 29 14 64 17 78 13 54 12 326 -1 406 -61 364 -260 673 -560 869 -158
103 -292 157 -500 200 -63 13 -331 13 -410 0z"/>
<path d="M4497 12544 c-1 -1 -31 -5 -67 -8 -192 -20 -404 -99 -575 -214 -95
-64 -249 -214 -317 -308 -107 -150 -193 -345 -224 -510 -19 -101 -22 -264 -23
-1073 -1 -509 -3 -926 -4 -928 -2 -1 -432 -4 -957 -6 -525 -2 -966 -6 -980 -9
-14 -3 -43 -9 -65 -13 -139 -24 -330 -103 -460 -189 -84 -55 -204 -161 -265
-234 -25 -29 -50 -58 -56 -65 -79 -89 -208 -370 -229 -500 -3 -17 -10 -56 -16
-86 -12 -61 -15 -257 -4 -341 53 -432 322 -807 715 -1001 62 -31 207 -84 253
-93 67 -14 136 -27 167 -31 19 -2 771 -5 1671 -5 1460 -1 1646 1 1728 15 350
61 658 259 853 549 88 132 141 247 181 396 42 151 42 150 41 1820 0 883 -3
1639 -7 1680 -54 528 -443 981 -957 1114 -52 13 -124 28 -160 32 -61 6 -237
13 -243 8z"/>
<path d="M8120 12542 c-278 -32 -485 -114 -690 -272 -55 -42 -230 -218 -230
-230 0 -4 -9 -17 -20 -30 -87 -101 -203 -377 -225 -537 -3 -21 -8 -54 -12 -73
-9 -50 -10 -3229 -1 -3319 52 -503 411 -942 894 -1094 191 -60 113 -58 1908
-58 1587 1 1645 1 1748 20 407 75 747 331 928 698 42 88 83 195 94 249 3 10 9
39 15 64 28 126 32 328 7 470 -81 463 -415 853 -858 1001 -193 65 -141 62
-1198 66 -530 2 -965 5 -967 6 -1 2 -4 432 -6 957 -2 525 -7 969 -10 985 -3
17 -9 46 -13 65 -4 19 -8 41 -10 49 -9 45 -72 214 -102 275 -127 251 -346 467
-592 583 -84 39 -222 88 -280 99 -25 4 -47 8 -50 9 -57 14 -268 25 -330 17z"/>
<path d="M1537 5864 c-1 -1 -45 -5 -97 -8 -119 -8 -131 -10 -245 -40 -556
-146 -961 -682 -949 -1256 4 -194 60 -422 137 -560 63 -114 92 -160 99 -160 4
0 8 -5 8 -11 0 -29 184 -215 285 -289 143 -104 333 -189 485 -219 30 -6 66
-14 80 -18 14 -4 457 -9 985 -10 527 -2 960 -5 962 -7 1 -1 3 -418 4 -927 0
-508 5 -949 10 -979 5 -30 11 -70 14 -87 41 -257 208 -548 420 -730 183 -158
415 -267 645 -304 167 -27 412 -9 570 41 492 157 828 555 906 1075 10 66 12
3223 2 3328 -10 108 -41 236 -83 344 -141 357 -446 641 -815 757 -189 60 -120
58 -1843 60 -868 0 -1579 0 -1580 0z"/>
<path d="M8145 5862 c-79 -5 -227 -33 -307 -58 -456 -144 -797 -533 -884
-1007 -16 -84 -18 -233 -19 -1685 -1 -1431 2 -1691 19 -1797 48 -294 211 -571
461 -783 128 -110 381 -231 534 -257 19 -3 37 -8 40 -10 15 -8 155 -19 251
-18 606 4 1129 445 1246 1049 19 98 22 263 23 1068 1 506 3 921 4 923 2 1 421
3 933 4 511 0 952 4 979 9 28 5 64 11 80 14 17 3 44 8 60 12 54 10 203 63 265
94 285 144 508 382 625 665 28 67 48 128 61 180 19 80 25 117 31 178 45 495
-172 943 -591 1219 -154 102 -393 181 -581 194 -86 6 -3146 12 -3230 6z"/>
<path d="M1135 2664 c-547 -96 -962 -511 -1059 -1059 -19 -108 -15 -375 8
-470 98 -408 335 -714 691 -892 180 -90 346 -127 570 -128 194 0 312 21 475
86 173 70 295 151 435 293 200 202 310 419 362 711 12 67 11 304 -2 380 -39
238 -133 453 -268 615 -161 193 -400 360 -597 416 -98 28 -172 45 -228 53 -98
13 -295 11 -387 -5z"/>
<path d="M11319 2676 c-2 -2 -24 -6 -49 -9 -25 -4 -54 -8 -65 -11 -11 -2 -41
-9 -66 -15 -325 -74 -644 -324 -813 -634 -41 -75 -98 -214 -111 -270 -32 -140
-38 -186 -39 -322 -1 -189 4 -235 50 -391 89 -310 331 -605 626 -764 95 -50
220 -96 333 -122 134 -29 358 -33 496 -8 413 76 760 341 934 714 92 196 119
319 120 536 0 85 -3 175 -7 200 -11 76 -40 194 -49 205 -5 5 -9 18 -9 30 0 26
-85 202 -134 278 -172 267 -468 479 -766 548 -25 6 -54 13 -65 15 -71 17 -372
32 -386 20z"/>
</g>
</svg>
