<svg xmlns="http://www.w3.org/2000/svg" id="Layer_1" viewBox="0 0 199.96 66.92"><defs><style>.cls-1{fill:#f2f2f2;}.cls-2{fill:#010101;}</style></defs><rect class="cls-1" width="199.96" height="66.92" rx="17.53" ry="17.53"/><g id="Layer_2-2"><g id="Layer_1-2"><g><path class="cls-2" d="M78.95,26.63c.01,1.18-.07,2.34-.39,3.48-.37,1.31-.95,2.48-2.05,3.33-1.14,.88-2.45,1.1-3.85,.98-1.61-.13-2.85-.93-3.92-2.07-.91-.98-1.66-2.07-2.38-3.19-.76-1.19-1.47-2.42-2.2-3.63-.43-.71-.86-1.41-1.3-2.12-.21-.35-.25-.34-.46,.03-.58,1.03-1.16,2.06-1.75,3.09-.95,1.68-1.92,3.34-3.12,4.87-.61,.78-1.28,1.5-2.09,2.08-1.14,.81-2.42,1.07-3.78,.94-2.41-.23-3.93-1.59-4.75-3.8-.51-1.36-.61-2.78-.57-4.22,.06-2.23,.48-4.4,1.29-6.48,.77-1.97,1.82-3.75,3.4-5.19,1-.91,2.14-1.57,3.48-1.83,.59-.12,1.18-.15,1.79-.11,1.8,.11,3.26,.95,4.57,2.1,.67,.59,1.27,1.24,1.82,1.93,.08,.1,.16,.2,.25,.3,.11,.12,.22,.11,.33-.02,.12-.16,.24-.32,.37-.47,.83-1.03,1.71-1.99,2.81-2.75,1.24-.85,2.59-1.24,4.1-1.04,1.23,.16,2.32,.68,3.3,1.44,1.36,1.05,2.35,2.41,3.13,3.92,.78,1.51,1.29,3.1,1.61,4.77,.23,1.21,.35,2.43,.36,3.66h0Zm-3.13,.05c-.01-1.74-.27-3.44-.75-5.11-.35-1.2-.84-2.34-1.53-3.38-.58-.86-1.26-1.62-2.19-2.12-.92-.5-1.89-.64-2.89-.28-.66,.24-1.2,.66-1.69,1.14-.68,.68-1.24,1.45-1.79,2.24-.18,.27-.19,.46,0,.73,.49,.74,.96,1.48,1.41,2.25,.92,1.58,1.86,3.14,2.85,4.68,.55,.85,1.09,1.71,1.71,2.51,.37,.47,.76,.93,1.28,1.25,.8,.5,2.29,.49,3-.64,.19-.3,.32-.63,.42-.98,.21-.75,.2-1.52,.2-2.3h0Zm-25.9,.09c0,.36-.03,.72,0,1.07,.07,.76,.24,1.5,.7,2.13,.44,.6,1.02,.93,1.79,.93,.6,0,1.12-.18,1.59-.53,.63-.47,1.12-1.06,1.57-1.69,1.86-2.57,3.46-5.31,5.22-7.94,.13-.19,.12-.37-.02-.55-.65-.89-1.31-1.76-2.12-2.52-.81-.75-1.73-1.25-2.85-1.32-.25-.02-.48,0-.72,.05-.74,.16-1.34,.56-1.87,1.07-.66,.63-1.17,1.37-1.58,2.17-1.16,2.24-1.68,4.63-1.72,7.13h0Z"/><path class="cls-2" d="M104.34,18.55c-.15,.15-.21,.33-.3,.49-1.81,3.26-3.63,6.51-5.43,9.77-.17,.3-.36,.43-.71,.42-.74-.02-1.49-.02-2.23,0-.32,0-.49-.11-.64-.39-1.84-3.32-3.69-6.64-5.54-9.96-.06-.11-.11-.23-.21-.31-.14,.01-.11,.11-.12,.19,0,.21,0,.43,0,.64v14.19c0,.47-.01,.48-.48,.48-.79,0-1.57,0-2.36,0-.47,0-.48-.02-.48-.48,0-2.8,0-5.6,0-8.4V14.05c0-.09,0-.17,0-.26-.01-.21,.08-.32,.3-.31,.21,0,.43,0,.64,0,.89,0,1.77,.02,2.66,0,.37-.01,.56,.13,.73,.44,2.13,3.86,4.27,7.72,6.41,11.58,.07,.13,.1,.34,.29,.33,.16,0,.18-.2,.25-.32,2.14-3.87,4.29-7.74,6.42-11.62,.17-.3,.36-.42,.71-.42,1.01,.02,2.03,0,3.04,0,.47,0,.48,.02,.48,.48,0,6.53,0,13.06,0,19.59,0,.07,0,.14,0,.21,0,.21-.1,.31-.32,.31-.39,0-.77,0-1.16,0-.5,0-1,0-1.5,0-.32,0-.35-.04-.36-.34,0-.1,0-.2,0-.3,0-4.83,0-9.66,0-14.49,0-.12,.04-.26-.1-.41h0Z"/><path class="cls-2" d="M150.7,20.5c.11-.13,.08-.25,.08-.36,0-.36,0-.71,0-1.07,0-.29,.03-.33,.32-.33,.84,0,1.69,0,2.53,0,.22,0,.32,.08,.3,.3,0,.07,0,.14,0,.21v14.31c0,.54,.03,.53-.55,.53-.7,0-1.4,0-2.1,0-.49,0-.49-.01-.49-.51,0-.36,0-.71,0-1.07,0-.1,.03-.2-.06-.31-.14-.02-.2,.11-.28,.2-.85,1.01-1.94,1.65-3.22,1.91-2.2,.44-4.2,.03-5.91-1.5-1.23-1.09-1.94-2.48-2.32-4.06-.31-1.27-.35-2.55-.15-3.83,.38-2.45,1.45-4.5,3.71-5.7,2.19-1.17,4.43-1.16,6.63,.04,.47,.26,.86,.61,1.22,1,.09,.09,.15,.21,.3,.25h0Zm.02,5.91c0-.64,0-1.29,0-1.93,0-.23-.03-.46-.14-.66-.2-.4-.43-.77-.74-1.1-.95-1.01-2.12-1.42-3.5-1.42-1.8,0-3.51,1.17-4.06,3.15-.37,1.31-.38,2.63,0,3.93,.49,1.69,1.57,2.8,3.35,3.1,1.91,.32,3.99-.61,4.9-2.4,.12-.24,.18-.47,.18-.74,0-.64,0-1.29,0-1.93h0s0,0,0,0Z"/><path class="cls-2" d="M119.69,27.59h-5.06c-.09,0-.17,0-.26,0-.31,.02-.35,.06-.28,.36,.43,1.84,1.5,3.1,3.36,3.56,.88,.22,1.79,.15,2.68-.02,1.05-.2,1.96-.69,2.77-1.38,.27-.24,.3-.23,.54,.06,.43,.52,.85,1.04,1.27,1.56,.24,.3,.24,.31-.04,.55-.8,.68-1.7,1.2-2.68,1.58-1.62,.62-3.29,.77-4.98,.48-2.88-.5-4.88-2.14-5.83-4.94-.83-2.47-.69-4.92,.54-7.22,1.27-2.38,3.33-3.61,6.02-3.79,1.23-.08,2.42,.07,3.55,.62,1.55,.76,2.61,1.95,3.26,3.54,.62,1.52,.8,3.11,.75,4.74,0,.28-.04,.3-.34,.31-.31,0-.63,0-.94,0h-4.33Zm-1.64-2.42h2.61c.36,0,.71,0,1.07,0,.35,0,.39-.06,.34-.42-.06-.38-.14-.76-.29-1.12-.44-1.09-1.16-1.92-2.3-2.27-2.68-.8-4.89,.8-5.45,3.54-.03,.16,.04,.25,.2,.26,.11,0,.23,0,.34,0,1.16,0,2.31,0,3.47,0h0Z"/><path class="cls-2" d="M129.34,25.67c0-1.24,0-2.49,0-3.73,0-.44-.03-.47-.46-.47-.73,0-1.46,0-2.19,0-.38,0-.41-.03-.42-.42,0-.66,0-1.31,0-1.97,0-.31,.03-.35,.35-.35,.67,0,1.34,0,2.01,0,.11,0,.23,0,.34,0,.32-.01,.34-.04,.36-.34,0-.11,0-.23,0-.34,0-1.13,0-2.26,0-3.38,0-.41,.02-.43,.44-.44,.79,0,1.57,0,2.36,0,.41,0,.42,.01,.42,.44,0,1.16,0,2.31,0,3.47,0,.07,0,.14,0,.21,0,.36,.01,.37,.4,.38,.1,0,.2,0,.3,0h3.39c.1,0,.2,0,.3,0,.19,0,.28,.09,.28,.29,0,.7,0,1.4,0,2.1,0,.3-.05,.35-.36,.35-.39,.01-.77,0-1.16,0-.9,0-1.8,0-2.7,0-.43,0-.44,.02-.44,.43,0,2.24,0,4.48,0,6.73,0,.61,.1,1.19,.34,1.75,.24,.55,.67,.87,1.24,1.02,.65,.17,1.3,.15,1.96,.08,.27-.03,.54-.07,.81-.1,.19-.02,.3,.05,.3,.26,0,.71,0,1.43,0,2.14,0,.22-.16,.29-.33,.33-.32,.07-.64,.16-.97,.19-1.07,.1-2.14,.15-3.19-.12-1.43-.37-2.42-1.23-2.94-2.62-.35-.94-.44-1.92-.45-2.9,0-1,0-2,0-3h0s0,0,0,0Z"/><path class="cls-2" d="M46.04,50.34c0-1.47,0-2.94,0-4.41,0-.44,.01-.46,.46-.46,1.19,0,2.37-.02,3.56,0,.57,.01,1.14,.12,1.64,.41,1.44,.84,1.64,2.88,.22,3.87-.27,.19-.26,.24,.04,.39,.95,.47,1.49,1.33,1.4,2.35-.09,1.1-.55,1.97-1.65,2.39-.54,.21-1.1,.31-1.67,.31-1.14,0-2.29,0-3.43,0-.11,0-.23,0-.34,0-.13,0-.21-.08-.22-.21,0-.11,0-.23,0-.34v-4.29h0Zm2.98,3.63h0c.39,0,.77,0,1.16,0,.34,0,.65-.07,.95-.21,.51-.23,.81-.63,.87-1.18,.07-.62-.07-1.16-.61-1.55-.37-.26-.79-.34-1.21-.36-.84-.03-1.68-.02-2.53,0-.29,0-.32,.04-.33,.32,0,.88,0,1.77,0,2.65,0,.28,.03,.31,.33,.32,.46,0,.91,0,1.37,0h0Zm-.07-4.52c.5-.03,1.1,.07,1.69-.11,.66-.2,1.01-.65,.99-1.32-.02-.67-.43-1.15-1.11-1.27-.98-.17-1.96-.05-2.95-.08-.21,0-.26,.13-.26,.31,0,.71,0,1.43,0,2.14,0,.28,.04,.31,.33,.32,.4,0,.8,0,1.3,0h0Z"/><path class="cls-2" d="M106.52,50.32c0-1.47,0-2.94,0-4.41,0-.44,0-.44,.46-.45,1.29,0,2.57,0,3.85,0,.46,0,.91,.09,1.34,.22,.81,.25,1.33,.82,1.58,1.62,.31,1.01,.21,1.97-.37,2.87-.34,.51-.83,.83-1.41,.99-.48,.13-.97,.22-1.48,.21-.76-.02-1.51,0-2.27,0-.42,0-.43,.02-.43,.44,0,.97,0,1.94,0,2.91,0,.45-.01,.47-.45,.47-.99,0-.82,.1-.83-.8,0-1.36,0-2.71,0-4.07h0s0,0,0,0Zm3.06-3.64c-.47,0-.94,0-1.41,0-.33,0-.36,.04-.37,.38,0,.91,0,1.83,0,2.74,0,.3,.04,.34,.35,.35,.87,0,1.74,.03,2.61,0,.55-.03,1.12-.14,1.48-.64,.44-.59,.47-1.24,.18-1.91-.28-.64-.83-.88-1.48-.91-.46-.02-.91,0-1.37,0h0Z"/><path class="cls-2" d="M121.45,51.91c0,.54,0,1.08,0,1.63,0,.46,.06,.91,.22,1.35,.09,.23,.05,.28-.18,.3-.13,.01-.26,0-.39,0-.37,0-.61-.18-.73-.53-.07-.22-.14-.25-.34-.1-.45,.34-.94,.59-1.48,.73-.82,.21-1.62,.15-2.35-.31-1.11-.69-1.22-2.47,0-3.31,.52-.36,1.12-.48,1.73-.55,.64-.07,1.27-.17,1.89-.31,.37-.09,.42-.17,.41-.58-.01-.45-.23-.77-.64-.93-.72-.27-1.45-.28-2.18-.01-.3,.11-.49,.34-.62,.62-.1,.21-.22,.27-.44,.19-.19-.06-.39-.07-.59-.1-.18-.03-.22-.13-.17-.31,.25-.82,.79-1.36,1.6-1.59,.9-.26,1.82-.3,2.74-.06,.87,.23,1.34,.75,1.44,1.64,.08,.74,.02,1.48,.06,2.23h0Zm-3.45,2.23c.37,.05,.73-.07,1.07-.2,.78-.31,1.18-.89,1.16-1.67,0-.33-.04-.35-.34-.28-.51,.11-1.03,.21-1.56,.26-.42,.04-.85,.08-1.24,.28-.29,.15-.47,.37-.48,.71,0,.35,.2,.59,.5,.74,.27,.13,.56,.21,.88,.17h0Z"/><path class="cls-2" d="M143.32,51.89c-.74,0-1.49,0-2.23,0-.37,0-.4,.04-.34,.4,.28,1.69,1.85,2.23,3.14,1.64,.28-.13,.5-.34,.66-.6,.11-.19,.26-.27,.46-.18,.18,.07,.37,.03,.55,.08,.34,.09,.36,.12,.22,.43-.31,.7-.82,1.2-1.54,1.46-1.27,.47-2.47,.37-3.56-.47-.61-.47-.92-1.12-1.07-1.85-.17-.82-.15-1.65,.05-2.46,.33-1.39,1.52-2.46,3.11-2.44,1.5,.01,2.52,.87,2.94,2.02,.19,.51,.27,1.05,.25,1.6-.01,.34-.03,.37-.36,.37-.76,0-1.51,0-2.27,0h0s0,0,0,0Zm-.57-1.22h0c.56,0,1.11,0,1.67,0,.26,0,.31-.08,.24-.32-.09-.29-.22-.55-.46-.75-.64-.55-1.7-.66-2.49-.25-.39,.21-.69,.49-.84,.93-.11,.32-.07,.39,.26,.39,.54,0,1.08,0,1.63,0h0Z"/><path class="cls-2" d="M84.11,51.89c-.74,0-1.49,0-2.23,0-.37,0-.41,.04-.35,.4,.28,1.75,1.97,2.24,3.21,1.6,.23-.12,.43-.3,.56-.52,.14-.24,.32-.3,.58-.2,.19,.07,.4,.03,.59,.1,.18,.06,.21,.15,.14,.32-.29,.65-.73,1.14-1.38,1.46-.75,.36-1.55,.45-2.34,.29-1.11-.24-1.96-.87-2.33-1.99-.44-1.34-.43-2.68,.28-3.94,.56-.98,1.46-1.46,2.58-1.5,1.91-.06,3.13,1.21,3.29,3.01,.11,1.21,.12,.95-.88,.98-.57,.01-1.14,0-1.71,0h0Zm-.59-1.22c.53,0,1.06,0,1.58,0,.38,0,.42-.07,.29-.44-.09-.26-.24-.48-.45-.66-.64-.54-1.72-.63-2.5-.21-.36,.2-.64,.47-.79,.87-.14,.37-.11,.43,.28,.44,.53,0,1.06,0,1.58,0h0Z"/><path class="cls-2" d="M65.71,55.37c-.54,.06-1.09-.1-1.6-.36-.65-.33-1.02-.9-1.21-1.59-.06-.24-.03-.28,.22-.36,.22-.07,.45-.04,.67-.11,.13-.04,.21,.05,.25,.17,.27,.8,.92,.98,1.66,1.02,.34,.02,.68,0,1.01-.12,.16-.06,.31-.14,.44-.26,.46-.44,.36-1-.25-1.2-.58-.19-1.18-.33-1.77-.5-.3-.09-.6-.19-.89-.3-.77-.3-1.19-.88-1.22-1.7-.03-.8,.33-1.42,1.02-1.8,.67-.37,1.41-.45,2.16-.34,.35,.05,.7,.13,1.03,.29,.6,.29,.94,.77,1.09,1.4,.06,.26,.02,.33-.24,.4-.21,.05-.42,.08-.63,.11-.14,.02-.21-.05-.26-.17-.26-.66-.8-.83-1.44-.85-.33,0-.66,0-.97,.12-.07,.03-.14,.04-.2,.08-.21,.14-.4,.3-.4,.57,0,.26,.18,.41,.39,.52,.23,.13,.48,.18,.73,.24,.65,.15,1.3,.33,1.93,.55,.91,.32,1.37,.86,1.41,1.68,.05,.89-.43,1.75-1.2,2.1-.65,.3-.96,.43-1.73,.39h0Z"/><path class="cls-2" d="M90.73,55.37c-.54,.06-1.09-.09-1.61-.35-.65-.33-1.02-.89-1.22-1.58-.07-.22,.01-.33,.21-.37,.24-.05,.47-.09,.71-.12,.14-.02,.2,.09,.23,.21,.17,.56,.6,.82,1.13,.93,.51,.11,1.02,.11,1.52-.06,.15-.05,.29-.12,.41-.23,.51-.45,.42-1.03-.24-1.24-.57-.18-1.15-.32-1.73-.48-.3-.09-.6-.19-.89-.3-.77-.3-1.19-.87-1.23-1.69-.04-.82,.33-1.45,1.04-1.83,.7-.37,1.46-.45,2.24-.3,.31,.06,.61,.13,.9,.26,.6,.28,.95,.76,1.1,1.39,.07,.28,.02,.35-.27,.42-.19,.05-.4,.03-.59,.09-.13,.04-.22-.03-.27-.16-.27-.7-.85-.86-1.52-.86-.32,0-.63,.01-.92,.14-.09,.04-.19,.08-.26,.14-.42,.32-.4,.71,.04,1,.23,.15,.5,.2,.77,.26,.67,.16,1.32,.34,1.97,.56,.8,.28,1.33,.78,1.38,1.66,.05,.94-.34,1.68-1.18,2.11-.61,.31-.96,.44-1.73,.4h0Z"/><path class="cls-2" d="M97.52,55.36c-.48,.09-.93-.06-1.37-.22-.81-.31-1.27-.94-1.48-1.76-.03-.13,0-.22,.13-.28,.27-.12,.56-.08,.84-.15,.11-.03,.17,.08,.2,.18,.27,.78,.9,.97,1.63,1.01,.36,.02,.71,0,1.05-.13,.18-.07,.33-.16,.46-.3,.41-.43,.3-.96-.26-1.15-.59-.2-1.21-.34-1.81-.51-.27-.08-.55-.17-.81-.27-.86-.33-1.29-.96-1.29-1.83,0-.79,.53-1.57,1.3-1.85,1-.36,1.99-.32,2.95,.13,.58,.27,.9,.77,1.05,1.38,.05,.21-.01,.33-.22,.38-.22,.04-.45,.08-.67,.12-.14,.02-.21-.07-.25-.18-.25-.64-.78-.82-1.41-.83-.33,0-.66-.01-.97,.11-.08,.03-.17,.05-.24,.1-.21,.14-.4,.3-.39,.58,0,.25,.19,.4,.4,.52,.21,.12,.46,.17,.69,.22,.67,.16,1.33,.34,1.97,.56,.91,.32,1.36,.86,1.4,1.69,.04,.9-.43,1.74-1.21,2.1-.53,.25-1.08,.46-1.69,.37h0Z"/><path class="cls-2" d="M132.23,51.65c0-1.04,0-2.08,0-3.13,0-.45,0-.45,.46-.45,.06,0,.11,0,.17,0,.29,0,.45,.16,.46,.45,0,.06,0,.11,0,.17,.02,.12,.09,.14,.18,.08,.06-.04,.11-.09,.16-.14,.78-.81,2.07-.94,3.1-.49,.73,.32,1.04,.94,1.15,1.68,.02,.17,.02,.34,.02,.51,0,1.47,0,2.94,0,4.41,0,.42,0,.42-.43,.43-.16,0-.31,0-.47,0-.22,0-.31-.1-.3-.31,0-.09,0-.17,0-.26,0-1.11,0-2.23,0-3.34,0-.24-.01-.49-.02-.73-.03-1.27-1.11-1.63-2.01-1.36-.7,.21-1.1,.67-1.22,1.39-.05,.3-.07,.59-.07,.89,0,1.06,0,2.11,0,3.17,0,.1,0,.2,0,.3,0,.15-.07,.24-.23,.24-.01,0-.03,0-.04,0-.92,.09-.92,.08-.92-.84v-2.7h0Z"/><path class="cls-2" d="M61.35,51.65c0,1.04,0,2.08,0,3.13,0,.4-.01,.4-.41,.41h-.04c-.68,0-.66,0-.64-.62,0-.04,0-.09,0-.13,0-.07,0-.15-.08-.17-.08-.02-.13,.04-.18,.09-.02,.02-.04,.04-.05,.07-.33,.44-.78,.72-1.29,.88-.43,.14-.87,.11-1.31,0-.14-.03-.27-.1-.4-.15-.86-.34-1.23-1.02-1.3-1.9-.03-.31-.03-.63-.03-.94,0-1.28,0-2.57,0-3.85,0-.37,.02-.39,.38-.39,1,0,.82-.07,.83,.81,.01,1.24,.01,2.48,.02,3.73,0,.06,0,.11,0,.17,.07,1.15,.99,1.53,1.86,1.32,.82-.19,1.26-.72,1.37-1.56,.04-.28,.05-.57,.05-.85,0-1.06,0-2.11,0-3.17,0-.44,0-.45,.41-.45,.95,0,.79-.07,.8,.79,0,.93,0,1.86,0,2.78h0s0,0,0,0Z"/><path class="cls-2" d="M73.02,51.65c0-1.04,0-2.08,0-3.13,0-.44,0-.45,.46-.45,.06,0,.11,0,.17,0,.29,0,.45,.15,.45,.45,0,.04,0,.09,0,.13,.02,.17,.09,.21,.22,.11,.06-.04,.1-.1,.15-.15,.86-.88,2.4-.94,3.4-.28,.55,.36,.75,.92,.83,1.53,.03,.24,.02,.48,.02,.73,0,1.38,0,2.77,0,4.16,0,.43,0,.43-.43,.44-.16,0-.31,0-.47,0-.22,0-.31-.09-.3-.31,.01-.29,0-.57,0-.86,0-1.14-.02-2.28-.01-3.43,0-1.34-1.17-1.7-2.08-1.38-.63,.22-1,.63-1.13,1.28-.07,.32-.09,.65-.09,.98,0,1.1,0,2.2,0,3.3,0,.41,0,.42-.4,.42-.95,0-.79,.08-.8-.8,0-.91,0-1.83,0-2.74h0Z"/><path class="cls-2" d="M128.63,51.68c0-.66,0-1.31,0-1.97,0-.4-.02-.41-.4-.43-.04,0-.09,0-.13,0-.29-.02-.32-.05-.33-.32,0-.07,0-.14,0-.21,0-.61,0-.62,.59-.67,.19-.02,.28-.1,.28-.29,0-.36,.01-.71,0-1.07-.01-.26,.08-.43,.31-.56,.2-.11,.39-.24,.59-.35,.21-.11,.27-.07,.29,.17,0,.09,0,.17,0,.26,0,.49,0,.97,0,1.46,0,.36,.02,.38,.4,.39,.01,0,.03,0,.04,0,.23,.03,.56-.12,.69,.09,.17,.28,.06,.64,.05,.96,0,.09-.09,.14-.18,.15-.1,0-.2,0-.3,0-.81,0-.7-.03-.7,.73,0,1.01,0,2.03,0,3.04,0,.17,0,.34,.03,.51,.06,.43,.22,.56,.65,.58,.07,0,.14,0,.21,0,.22-.02,.31,.09,.34,.3,.02,.17,.06,.34,.08,.51,.03,.23-.04,.37-.28,.39-.54,.06-1.08,.13-1.58-.19-.3-.19-.52-.44-.56-.81-.04-.31-.07-.62-.07-.94,0-.57,0-1.14,0-1.71h0Z"/><path class="cls-2" d="M148.66,48.85c.17-.09,.24-.26,.35-.39,.59-.72,1.34-.67,2.04-.31,.15,.08,.24,.2,.16,.39-.04,.09-.05,.19-.08,.29-.16,.5-.17,.5-.67,.34-.57-.18-1.17,.07-1.44,.62-.23,.46-.3,.95-.3,1.45,0,1.18,0,2.37,0,3.55,0,.4,0,.4-.41,.4-.96,0-.8,.09-.8-.79,0-1.93,0-3.85,0-5.78,0-.1,0-.2,0-.3,0-.18,.09-.26,.27-.25,.06,0,.11,0,.17,0,.59,0,.69-.08,.64,.61,0,.06,0,.11,.08,.17h0Z"/><path class="cls-2" d="M124.36,48.83c.18-.1,.25-.27,.36-.39,.62-.74,1.45-.63,2.12-.23,.11,.07,.16,.16,.1,.29-.04,.09-.07,.19-.11,.28-.06,.17-.09,.38-.24,.49-.17,.12-.32-.06-.48-.11-.56-.16-1.14,.09-1.4,.62-.23,.46-.31,.95-.31,1.45,0,1.14,0,2.28,0,3.42,0,.1,0,.2,0,.3,0,.16-.08,.24-.23,.24-.26,0-.51,0-.77,0-.14,0-.21-.08-.21-.22,0-.09,0-.17,0-.26v-6.16c0-.09,0-.17,0-.26,0-.14,.08-.21,.22-.21,.06,0,.11,0,.17,0,.43-.01,.65,.19,.68,.61,0,.06,.02,.11,.09,.15h0Z"/><path class="cls-2" d="M71.26,51.65c0,1.04,0,2.08,0,3.12,0,.4,0,.42-.4,.42-.94,0-.79,.07-.79-.75,0-1.92,0-3.85,0-5.77,0-.09,0-.17,0-.26,.01-.29,.03-.33,.32-.33,1.07,0,.87-.09,.88,.79,.01,.93,0,1.85,0,2.78h0Z"/><path class="cls-2" d="M70.06,46.05c0-.55-.09-.59,.58-.58,.71,0,.61,0,.61,.64,0,.58,.07,.58-.58,.58-.73,0-.61-.02-.62-.64h0Z"/></g></g></g></svg>